<svg width="34" height="34" viewBox="0 0 34 34" fill="none" xmlns="http://www.w3.org/2000/svg">
<g id="akar-icons:instagram-fill">
<g id="Group">
<path id="Vector" fill-rule="evenodd" clip-rule="evenodd" d="M10.5754 1.51025C12.2371 1.43375 12.767 1.41675 17 1.41675C21.233 1.41675 21.7628 1.43516 23.4231 1.51025C25.0835 1.58533 26.2168 1.85025 27.2085 2.23416C28.2469 2.62658 29.189 3.24 29.9681 4.03333C30.7615 4.81108 31.3735 5.75175 31.7645 6.79158C32.1498 7.78325 32.4133 8.91658 32.4898 10.5741C32.5663 12.2387 32.5833 12.7685 32.5833 17.0001C32.5833 21.2331 32.5649 21.7629 32.4898 23.4247C32.4147 25.0822 32.1498 26.2155 31.7645 27.2072C31.3734 28.2471 30.7604 29.1894 29.9681 29.9682C29.189 30.7616 28.2469 31.3736 27.2085 31.7646C26.2168 32.1499 25.0835 32.4134 23.426 32.4899C21.7628 32.5664 21.233 32.5834 17 32.5834C12.767 32.5834 12.2371 32.565 10.5754 32.4899C8.91788 32.4148 7.78454 32.1499 6.79288 31.7646C5.75293 31.3735 4.8107 30.7605 4.03179 29.9682C3.239 29.19 2.62549 28.2483 2.23404 27.2086C1.85013 26.2169 1.58663 25.0836 1.51013 23.4261C1.43363 21.7615 1.41663 21.2317 1.41663 17.0001C1.41663 12.7671 1.43504 12.2372 1.51013 10.5769C1.58521 8.91658 1.85013 7.78325 2.23404 6.79158C2.62607 5.75186 3.24004 4.81011 4.03321 4.03191C4.81102 3.23929 5.75229 2.62579 6.79146 2.23416C7.78313 1.85025 8.91646 1.58675 10.574 1.51025H10.5754ZM23.297 4.31525C21.6537 4.24016 21.1607 4.22458 17 4.22458C12.8392 4.22458 12.3462 4.24016 10.7029 4.31525C9.18279 4.38466 8.35829 4.63825 7.80863 4.85216C7.08188 5.1355 6.56196 5.47125 6.01654 6.01666C5.49952 6.51965 5.10163 7.13198 4.85204 7.80875C4.63813 8.35841 4.38454 9.18291 4.31513 10.703C4.24004 12.3463 4.22446 12.8393 4.22446 17.0001C4.22446 21.1608 4.24004 21.6538 4.31513 23.2972C4.38454 24.8172 4.63813 25.6417 4.85204 26.1914C5.10138 26.8672 5.49946 27.4806 6.01654 27.9835C6.51946 28.5006 7.13288 28.8987 7.80863 29.148C8.35829 29.3619 9.18279 29.6155 10.7029 29.6849C12.3462 29.76 12.8378 29.7756 17 29.7756C21.1621 29.7756 21.6537 29.76 23.297 29.6849C24.8171 29.6155 25.6416 29.3619 26.1913 29.148C26.918 28.8647 27.438 28.5289 27.9834 27.9835C28.5005 27.4806 28.8985 26.8672 29.1479 26.1914C29.3618 25.6417 29.6154 24.8172 29.6848 23.2972C29.7599 21.6538 29.7755 21.1608 29.7755 17.0001C29.7755 12.8393 29.7599 12.3463 29.6848 10.703C29.6154 9.18291 29.3618 8.35841 29.1479 7.80875C28.8645 7.082 28.5288 6.56208 27.9834 6.01666C27.4804 5.49968 26.868 5.1018 26.1913 4.85216C25.6416 4.63825 24.8171 4.38466 23.297 4.31525ZM15.0095 21.804C16.1211 22.2667 17.3589 22.3292 18.5114 21.9807C19.664 21.6322 20.6598 20.8944 21.3287 19.8933C21.9977 18.8921 22.2984 17.6898 22.1794 16.4916C22.0603 15.2935 21.529 14.1738 20.6762 13.3238C20.1325 12.7805 19.4752 12.3645 18.7514 12.1057C18.0277 11.8469 17.2556 11.7518 16.4907 11.8273C15.7258 11.9027 14.9871 12.1468 14.3278 12.542C13.6686 12.9372 13.1052 13.4736 12.6781 14.1127C12.2511 14.7518 11.9711 15.4776 11.8582 16.2379C11.7453 16.9981 11.8024 17.774 12.0254 18.5096C12.2484 19.2451 12.6316 19.9221 13.1476 20.4918C13.6637 21.0614 14.2995 21.5096 15.0095 21.804ZM11.3361 11.3362C12.0799 10.5925 12.9629 10.0025 13.9347 9.59993C14.9065 9.19739 15.9481 8.99021 17 8.99021C18.0518 8.99021 19.0934 9.19739 20.0652 9.59993C21.037 10.0025 21.92 10.5925 22.6638 11.3362C23.4076 12.08 23.9976 12.963 24.4001 13.9348C24.8026 14.9066 25.0098 15.9482 25.0098 17.0001C25.0098 18.052 24.8026 19.0935 24.4001 20.0653C23.9976 21.0371 23.4076 21.9201 22.6638 22.6639C21.1616 24.1661 19.1243 25.01 17 25.01C14.8756 25.01 12.8383 24.1661 11.3361 22.6639C9.83398 21.1618 8.99009 19.1244 8.99009 17.0001C8.99009 14.8757 9.83398 12.8384 11.3361 11.3362ZM26.7863 10.1831C26.9706 10.0092 27.1182 9.80013 27.2202 9.56821C27.3223 9.33629 27.3768 9.08625 27.3805 8.8329C27.3842 8.57954 27.337 8.32802 27.2417 8.09323C27.1465 7.85843 27.0051 7.64514 26.8259 7.46597C26.6467 7.2868 26.4334 7.1454 26.1986 7.05015C25.9639 6.95489 25.7123 6.90771 25.459 6.91141C25.2056 6.9151 24.9556 6.96959 24.7237 7.07165C24.4917 7.17371 24.2827 7.32127 24.1088 7.50558C23.7706 7.86404 23.5855 8.34017 23.5927 8.8329C23.5999 9.32563 23.7988 9.79616 24.1473 10.1446C24.4957 10.4931 24.9662 10.692 25.459 10.6992C25.9517 10.7064 26.4278 10.5212 26.7863 10.1831Z" fill="#FF001E"/>
</g>
</g>
</svg>
